# This file uses centimeters as units for non-parametric coordinates.

mtllib objSign.mtl
g default
v -1.118437 4.792130 0.027882
v 1.114717 4.792130 0.149287
v -1.118437 6.507284 0.027882
v 1.114717 6.507284 0.149287
v -1.114718 6.507284 -0.040529
v 1.118437 6.507284 0.080876
v -1.114718 4.792130 -0.040529
v 1.118437 4.792130 0.080876
v -1.066575 4.827786 0.030702
v 1.062872 4.827786 0.146468
v 1.062872 6.471630 0.146468
v -1.066575 6.471630 0.030702
v -1.065944 4.827786 0.019111
v 1.063503 4.827786 0.134878
v 1.063503 6.471630 0.134878
v -1.065944 6.471630 0.019111
vt 0.023224 0.214648
vt 0.976776 0.214648
vt 0.976776 0.873702
vt 0.023224 0.873702
vt -0.000008 0.891572
vt 0.999992 0.891572
vt 0.999992 0.891572
vt -0.000008 0.891572
vt 0.999992 0.196776
vt -0.000008 0.196776
vt 0.999992 0.196776
vt -0.000008 0.196776
vt 0.976776 0.214648
vt 0.023224 0.214648
vt 0.976776 0.873702
vt 0.023224 0.873702
vt 0.087818 0.226481
vt 0.890186 0.226481
vt 0.890186 0.849715
vt 0.087818 0.849715
vn -0.054284 0.000000 0.998526
vn -0.054284 0.000000 0.998526
vn -0.054284 0.000000 0.998526
vn -0.054284 0.000000 0.998526
vn 0.000000 1.000000 -0.000001
vn 0.000000 1.000000 -0.000001
vn 0.000000 1.000000 -0.000001
vn 0.000000 1.000000 -0.000001
vn 0.054284 0.000000 -0.998526
vn 0.054284 0.000000 -0.998526
vn 0.054284 0.000000 -0.998526
vn 0.054284 0.000000 -0.998526
vn 0.000000 -1.000000 -0.000001
vn 0.000000 -1.000000 -0.000001
vn 0.000000 -1.000000 -0.000001
vn 0.000000 -1.000000 -0.000001
vn 0.998526 0.000000 0.054284
vn 0.998526 0.000000 0.054284
vn 0.998526 0.000000 0.054284
vn 0.998526 0.000000 0.054284
vn -0.998526 0.000000 -0.054284
vn -0.998526 0.000000 -0.054284
vn -0.998526 0.000000 -0.054284
vn -0.998526 0.000000 -0.054284
vn -0.054285 0.000000 0.998526
vn -0.054285 0.000000 0.998526
vn -0.054285 0.000000 0.998526
vn -0.054285 0.000000 0.998526
vn -0.054284 -0.000000 0.998526
vn -0.054284 -0.000000 0.998526
vn -0.054284 -0.000000 0.998526
vn -0.054284 -0.000000 0.998526
vn 0.000000 1.000000 -0.000002
vn 0.000000 1.000000 -0.000002
vn 0.000000 1.000000 -0.000002
vn 0.000000 1.000000 -0.000002
vn -0.998525 0.000000 -0.054288
vn -0.998525 0.000000 -0.054288
vn -0.998525 0.000000 -0.054288
vn -0.998525 0.000000 -0.054288
vn 0.000000 -1.000000 0.000005
vn 0.000000 -1.000000 0.000005
vn 0.000000 -1.000000 0.000005
vn 0.000000 -1.000000 0.000005
vn 0.998525 0.000000 0.054288
vn 0.998525 0.000000 0.054288
vn 0.998525 0.000000 0.054288
vn 0.998525 0.000000 0.054288
s off
g sign:pCube1 sign1 sign:group1185 sign:river
usemtl lambert3SG
f 13/17/1 14/18/2 15/19/3 16/20/4
usemtl blinn1SG
f 3/5/5 4/6/6 6/7/7 5/8/8
f 5/8/9 6/7/10 8/9/11 7/10/12
f 7/10/13 8/9/14 2/11/15 1/12/16
f 2/11/17 8/9/18 6/7/19 4/6/20
f 7/10/21 1/12/22 3/5/23 5/8/24
s 1
f 1/12/25 2/11/26 10/13/27 9/14/28
f 2/11/26 4/6/29 11/15/30 10/13/27
f 4/6/29 3/5/31 12/16/32 11/15/30
f 3/5/31 1/12/25 9/14/28 12/16/32
s off
f 9/14/33 10/13/34 14/2/35 13/1/36
f 10/13/37 11/15/38 15/3/39 14/2/40
f 11/15/41 12/16/42 16/4/43 15/3/44
f 12/16/45 9/14/46 13/1/47 16/4/48
g default
v -0.200271 6.907584 -0.149286
v -0.200283 -0.043715 -0.149287
v -0.209125 6.907588 0.017154
v -0.209136 -0.043712 0.017145
v 0.230787 6.907588 0.040538
v 0.230781 -0.043712 0.040529
v 0.239639 6.907584 -0.125885
v 0.239634 -0.043715 -0.125885
vt 0.413214 1.071729
vt 0.413214 -0.071729
vt 0.586782 -0.071729
vt 0.586782 1.071729
vt 0.586782 1.071729
vt 0.586782 -0.071729
vt 0.413214 -0.071729
vt 0.413214 1.071729
vt -5.032217 0.525002
vt 6.032215 0.525002
vt 6.032215 0.475000
vt -5.032217 0.475000
vt -5.032217 0.475000
vt 6.032215 0.475000
vt 6.032215 0.525002
vt -5.032217 0.525002
vn -0.998588 0.000002 -0.053119
vn -0.998588 0.000002 -0.053119
vn -0.998588 0.000002 -0.053119
vn -0.998588 0.000002 -0.053119
vn -0.053081 -0.000001 0.998590
vn -0.053081 -0.000001 0.998590
vn -0.053081 -0.000001 0.998590
vn -0.053081 -0.000001 0.998590
vn 0.998588 -0.000001 0.053120
vn 0.998588 -0.000001 0.053120
vn 0.998588 -0.000001 0.053120
vn 0.998588 -0.000001 0.053120
vn 0.053119 -0.000000 -0.998588
vn 0.053119 -0.000000 -0.998588
vn 0.053119 -0.000000 -0.998588
vn 0.053119 -0.000000 -0.998588
s off
g sign1 sign:group1185 sign:river sign:a1:dock:pCube39
usemtl lambert2SG
f 17/29/49 18/30/50 20/31/51 19/32/52
f 19/21/53 20/22/54 22/23/55 21/24/56
f 21/33/57 22/34/58 24/35/59 23/36/60
f 23/25/61 24/26/62 18/27/63 17/28/64
